<?xml version="1.0" standalone="no"?><!DOCTYPE svg PUBLIC "-//W3C//DTD SVG 1.1//EN" "http://www.w3.org/Graphics/SVG/1.1/DTD/svg11.dtd"><svg class="icon" width="64px" height="64.00px" viewBox="0 0 1024 1024" version="1.1" xmlns="http://www.w3.org/2000/svg"><path d="M908.8 430.848l-19.584 11.264a352 352 0 0 1 0 139.776l19.584 11.264a128 128 0 1 1-128 221.696l-21.056-12.16A387.968 387.968 0 0 1 640 872.512V896a128 128 0 1 1-256 0v-23.488a387.904 387.904 0 0 1-119.488-69.824l-21.056 12.16a128 128 0 1 1-128-221.696l19.52-11.264a352.64 352.64 0 0 1 0-139.776l-19.52-11.264a128 128 0 1 1 128-221.696l21.056 12.16A386.624 386.624 0 0 1 384 151.488V128a128 128 0 1 1 256 0v23.488a386.688 386.688 0 0 1 119.488 69.824l21.056-12.16A128.064 128.064 0 1 1 908.8 430.848zM512 384a128 128 0 1 0 128 128 128 128 0 0 0-128-128z" /></svg>